<?xml version="1.0" encoding="utf-8"?>
<!-- Generator: Adobe Illustrator 22.0.1, SVG Export Plug-In . SVG Version: 6.00 Build 0)  -->
<svg version="1.1" id="Layer_1" xmlns="http://www.w3.org/2000/svg" xmlns:xlink="http://www.w3.org/1999/xlink" x="0px" y="0px"
	 viewBox="0 0 1200 600" style="enable-background:new 0 0 1200 600;" xml:space="preserve">
<style type="text/css">
	.st0{fill:#00247D;}
	.st1{stroke:#FFFFFF;stroke-width:6;}
	.st2{clip-path:url(#SVGID_2_);stroke:#CF142B;stroke-width:4;}
	.st3{stroke:#FFFFFF;stroke-width:10;}
	.st4{stroke:#CF142B;stroke-width:6;}
	.st5{fill:#DC0000;}
	.st6{fill:#FECD00;}
</style>
<path class="st0" d="M0,0v600h1200V0H0z"/>
<path class="st1" d="M0,0l1200,600 M1200,0L0,600"/>
<g>
	<defs>
		<polygon id="SVGID_1_" points="600,300 1200,300 1200,600 600,600 0,600 0,300 0,0 600,0 1200,0 		"/>
	</defs>
	<clipPath id="SVGID_2_">
		<use xlink:href="#SVGID_1_"  style="overflow:visible;"/>
	</clipPath>
	<path class="st2" d="M0,0l1200,600 M1200,0L0,600"/>
</g>
<path class="st3" d="M600,0v600 M0,300h1200"/>
<path class="st4" d="M600,0v600 M0,300h1200"/>
<g>
	<path d="M-5.7,200c-0.1-14.8-0.2-29.6-0.2-44.4c0-49.6,0-99.3,0-148.9c0-6.6,0-6.6,7.8-6.6c396.7,0,793.4,0,1190.1-0.1
		c5.7,0,8,0.8,8,6.2c-0.3,63.1-0.2,126.2-0.2,189.3c0,1.5-0.1,3-0.2,4.5C797.9,200,396.1,200-5.7,200z"/>
	<path class="st5" d="M-5.7,200c401.8,0,803.5,0,1205.3,0c0.1,6.5,0.2,13.1,0.2,19.6c0,57.9,0,115.8,0,173.8c0,2.2-0.1,4.4-0.2,6.5
		c-401.8,0-803.5,0-1205.3,0c-0.1-6.5-0.2-13.1-0.2-19.6c0-57.9,0-115.8,0-173.8C-5.9,204.4-5.7,202.2-5.7,200z"/>
	<path class="st6" d="M-5.7,400c401.8,0,803.5,0,1205.3,0c0.1,12.6,0.2,25.2,0.2,37.8c0,52.2-0.1,104.3,0.1,156.5
		c0,4.7-1.6,5.7-7,5.7c-397.3-0.1-794.6-0.1-1191.9,0c-5.4,0-7.1-1-7-5.7c0.2-63.3,0.1-126.5,0.1-189.8C-5.9,403-5.7,401.5-5.7,400z
		"/>
</g>
</svg>
