<?xml version="1.0" standalone="no"?>
<!DOCTYPE svg PUBLIC "-//W3C//DTD SVG 20010904//EN"
 "http://www.w3.org/TR/2001/REC-SVG-20010904/DTD/svg10.dtd">
<svg version="1.0" xmlns="http://www.w3.org/2000/svg"
 width="1000.000000pt" height="1000.000000pt" viewBox="0 0 1000.000000 1000.000000"
 preserveAspectRatio="xMidYMid meet">
<metadata>
Created by potrace 1.14, written by Peter Selinger 2001-2017
</metadata>
<g transform="translate(0.000000,1000.000000) scale(0.100000,-0.100000)"
fill="#000000" stroke="none">
<path d="M901 9899 c-256 -54 -472 -197 -629 -418 -46 -64 -111 -208 -139
-306 l-28 -100 0 -4045 c0 -2225 3 -4072 7 -4105 29 -242 181 -499 387 -651
129 -96 257 -153 430 -192 14 -3 1844 -7 4066 -9 4352 -3 4109 -5 4264 46 177
59 359 185 479 334 55 68 132 211 159 297 51 158 47 -172 50 4210 1 2630 -1
4073 -8 4105 -5 28 -12 63 -14 78 -3 15 -17 63 -31 105 -46 138 -131 271 -245
383 -151 148 -321 236 -530 273 -74 13 -578 15 -4104 15 -3965 0 -4021 -1
-4114 -20z"/>
</g>
</svg>
