<?xml version="1.0" encoding="utf-8"?>
<!-- Generator: Adobe Illustrator 22.0.1, SVG Export Plug-In . SVG Version: 6.00 Build 0)  -->
<svg version="1.1" id="Layer_1" xmlns="http://www.w3.org/2000/svg" xmlns:xlink="http://www.w3.org/1999/xlink" x="0px" y="0px"
	 viewBox="0 0 375 375" style="enable-background:new 0 0 375 375;" xml:space="preserve">
<style type="text/css">
	.st0{fill:#FFFFFF;}
	.st1{fill:#009D4B;}
</style>
<g>
	<path class="st0" d="M184.3,9.5C88,11.4,9,90.4,9,188.6c-0.1,98.7,81.3,181.3,183.5,179c96-2.2,176.9-81.9,174.6-183.4
		C365,87.9,285,7.5,184.3,9.5z M255.7,118.6c0,2.9-1.7,4.7-4.8,4.7c-24.5-0.1-49,0-73.4,0c-1.7,0-1.7,0-1.7,1.7c0,18,0,36.1,0,54.1
		c0,1.6,0,1.6,1.6,1.6c22.4,0,44.7,0,67.1,0c3.1,0,4.6,1.5,4.6,4.6c0,9.4,0,18.8,0,28.2c0,2.9-1.6,4.5-4.5,4.5c-22.3,0-44.6,0-67,0
		c-1.8,0-1.8,0-1.8,1.8c0,26.4,0,52.8,0,79.2c0,0.6,0,1.3,0,1.9c-0.2,2.7-1.8,4.2-4.5,4.2c-11.5,0-23,0-34.4,0c-3,0-4.6-1.5-4.6-4.5
		c0-4.4,0-8.8,0-13.2c0-31.4,0-62.7,0-94.1c0-35.5,0-71,0-106.4c0-2.6,0-2.2,2.2-2.2c38.5,0,77,0,115.6,0c0.8,0,1.7,0.1,2.5,0.2
		c2,0.4,3.3,2,3.3,4C255.7,98.9,255.7,108.7,255.7,118.6z"/>
	<path class="st1" d="M252.4,85c-0.8-0.2-1.7-0.2-2.5-0.2c-38.5,0-77,0-115.6,0c-2.2,0-2.2-0.4-2.2,2.2c0,35.5,0,71,0,106.4
		c0,31.4,0,62.7,0,94.1c0,4.4,0,8.8,0,13.2c0,3,1.6,4.5,4.6,4.5c11.5,0,23,0,34.4,0c2.7,0,4.3-1.5,4.5-4.2c0-0.6,0-1.3,0-1.9
		c0-26.4,0-52.8,0-79.2c0-1.8,0-1.8,1.8-1.8c22.3,0,44.6,0,67,0c3,0,4.5-1.5,4.5-4.5c0-9.4,0-18.8,0-28.2c0-3.1-1.5-4.6-4.6-4.6
		c-22.4,0-44.7,0-67.1,0c-1.6,0-1.6,0-1.6-1.6c0-18,0-36.1,0-54.1c0-1.7,0-1.7,1.7-1.7c24.5,0,49,0,73.4,0c3.2,0,4.8-1.8,4.8-4.7
		c0.1-9.9,0-19.8,0-29.6C255.7,87,254.3,85.4,252.4,85z"/>
</g>
</svg>
